<svg height="512" viewBox="0 0 74 74" width="512" xmlns="http://www.w3.org/2000/svg"><g id="Numbers"><text fill="rgb(0,0,0)" font-family="ArialMT, Arial" font-size="18" transform="translate(31.995 -886.544)">6<tspan x="-5.005" y="124">16</tspan><tspan x="-5.005" y="248">26</tspan><tspan x="-5.005" y="372">36</tspan><tspan x="-5.005" y="496">46</tspan><tspan x="-5.005" y="620">56</tspan><tspan x="-5.005" y="744">66</tspan><tspan x="-5.005" y="868">76</tspan><tspan x="-5.005" y="992">86</tspan><tspan x="-5.005" y="1116">96</tspan><tspan x="-10.011" y="1240">106</tspan><tspan letter-spacing="-.074em" x="-9.343" y="1364">1</tspan><tspan x="-.668" y="1364">16</tspan><tspan x="-10.011" y="1488">126</tspan><tspan x="-10.011" y="1612">136</tspan><tspan x="-10.011" y="1736">146</tspan><tspan x="-10.011" y="1860">156</tspan><tspan x="-10.011" y="1984">166</tspan><tspan x="-10.011" y="2108">176</tspan><tspan x="-10.011" y="2232">186</tspan><tspan x="-10.011" y="2356">196</tspan><tspan x="-10.011" y="2480">206</tspan><tspan x="-10.011" y="2604">216</tspan><tspan x="-10.011" y="2728">226</tspan><tspan x="-10.011" y="2852">236</tspan><tspan x="-10.011" y="2976">246</tspan><tspan x="-10.011" y="3100">256</tspan><tspan x="-10.011" y="3224">266</tspan><tspan x="-10.011" y="3348">276</tspan><tspan x="-10.011" y="3472">286</tspan><tspan x="-10.011" y="3596">296</tspan></text></g><g id="_2_PT" data-name="2 PT"><path d="m55 72h-36a5.006 5.006 0 0 1 -5-5v-48h2v48a3 3 0 0 0 3 3h36a3 3 0 0 0 3-3v-48h2v48a5.006 5.006 0 0 1 -5 5z"/><path d="m62 20h-50a1 1 0 0 1 -1-1v-6a5.006 5.006 0 0 1 5-5h42a5.006 5.006 0 0 1 5 5v6a1 1 0 0 1 -1 1zm-49-2h48v-5a3 3 0 0 0 -3-3h-42a3 3 0 0 0 -3 3z"/><path d="m47 10h-20a1 1 0 0 1 -.948-1.316l2-6a1 1 0 0 1 .948-.684h16a1 1 0 0 1 .948.684l2 6a1 1 0 0 1 -.948 1.316zm-18.612-2h17.224l-1.333-4h-14.558z"/><path d="m15 62h44v2h-44z"/><path d="m48 32.688h2v18.625h-2z"/><path d="m36 28h2v28h-2z"/><path d="m24 32.688h2v18.625h-2z"/></g></svg>